<svg version="1.0" xmlns="http://www.w3.org/2000/svg"
 width="668px" style="transform:scale(1,1.001);" height="375.75px" viewBox="0 0 320.000000 180.000000"
 preserveAspectRatio="xMidYMid meet">
<g transform="translate(0.000000,180.000000) scale(0.100000,-0.100000)"
fill="#000000" stroke="none">
<path d="M0 905 l0 -895 261 0 261 0 -7 32 c-16 71 -10 131 18 186 15 30 27 61 27 70 1
9 20 67 43 129 46 123 93 186 147 198 17 4 43 13 58 20 15 7 45 21 67 31 54
25 112 86 141 147 13 29 34 65 46 80 23 28 23 34 23 290 0 144 4 273 9 287 19
55 83 125 142 155 57 29 63 30 200 30 134 0 143 -1 196 -28 30 -15 71 -45 91
-65 35 -35 37 -43 46 -129 5 -50 17 -105 25 -122 24 -45 33 -138 23 -217 -9
-64 -7 -74 18 -139 29 -72 32 -101 21 -170 -6 -36 -3 -43 30 -79 20 -21 52
-43 72 -48 35 -10 109 -61 125 -86 5 -7 22 -26 38 -43 16 -17 32 -43 36 -59 3
-16 13 -37 23 -47 25 -28 36 -51 50 -113 7 -30 21 -68 30 -85 38 -63 59 -136
53 -181 l-6 -44 447 0 446 0 0 895 0 895 -1600 0 -1600 0 0 -895z"/>
</g>
</svg>
