<svg version="1.0" xmlns="http://www.w3.org/2000/svg"
 width="505.5462184873949px" style="transform:scale(1.001,1);" height="376px" viewBox="0 0 320.000000 238.000000"
 preserveAspectRatio="xMidYMid meet">
<g transform="translate(0.000000,238.000000) scale(0.100000,-0.100000)"
fill="#000000" stroke="none">
<path d="M0 1195 l0 -1185 119 0 118 0 7 203 c9 240 37 449 71 525 32 70 68 114 196
242 58 58 108 114 111 126 8 31 -23 94 -50 101 -20 5 -23 11 -20 42 3 31 6 36
25 33 27 -4 38 29 29 86 -3 20 -11 75 -16 121 -11 81 -11 84 14 122 14 21 26
45 26 52 0 27 42 67 83 79 23 6 52 18 64 26 12 7 46 16 76 19 102 10 173 -45
264 -207 l30 -55 -3 -175 c-2 -174 -2 -175 24 -217 14 -23 43 -51 64 -63 103
-58 188 -154 188 -213 0 -13 12 -61 26 -107 21 -66 24 -87 15 -107 -17 -37
-14 -150 4 -157 13 -4 15 8 15 80 0 99 10 123 74 169 22 17 49 47 59 68 13 25
25 37 39 37 12 0 40 17 63 38 77 68 97 82 113 84 10 0 22 2 28 2 6 1 19 9 28
19 10 9 26 17 36 17 31 0 70 42 80 85 14 56 50 293 50 322 0 14 -9 37 -21 51
-11 15 -42 55 -70 90 -53 68 -65 98 -55 137 10 41 -17 91 -53 98 -33 7 -37 19
-21 62 13 35 -5 151 -30 185 -23 33 -70 126 -70 139 0 6 91 10 229 10 242 1
257 -2 249 -46 -2 -14 5 -19 37 -21 22 -2 48 -10 57 -19 13 -12 35 -14 94 -11
l76 4 -7 -139 c-8 -162 -2 -180 64 -191 31 -5 51 -18 92 -61 28 -30 93 -82
143 -114 50 -33 107 -71 126 -85 50 -34 144 -178 165 -251 9 -33 23 -78 30
-100 15 -47 12 -488 -4 -545 -5 -19 -14 -51 -19 -71 -19 -76 -95 -139 -167
-139 -13 0 -27 -5 -31 -12 -7 -10 -8 -95 -5 -290 l1 -78 170 0 170 0 0 1185 0
1185 -1600 0 -1600 0 0 -1185z"/>
<path d="M1699 667 c-9 -7 -21 -23 -29 -36 -11 -22 -11 -24 9 -18 34 9 24 -1 -22 -21
-49 -22 -105 -92 -99 -124 1 -4 -2 -18 -8 -32 -7 -19 -3 -46 15 -108 14 -46
25 -97 25 -115 0 -17 5 -35 10 -38 6 -3 10 -42 10 -86 l0 -79 189 0 189 0 6
178 c3 97 8 227 11 287 3 61 2 115 -2 121 -4 6 -64 25 -133 42 -69 17 -132 33
-140 36 -8 3 -22 0 -31 -7z"/>
</g>
</svg>
